<svg width="40" height="40" viewBox="0 0 40 40" fill="none" xmlns="http://www.w3.org/2000/svg" aria-label="Noir">
  <defs>
    <linearGradient id="noir-bg" x1="5" y1="4" x2="35" y2="36" gradientUnits="userSpaceOnUse">
      <stop stop-color="#181520"/>
      <stop offset="0.58" stop-color="#08070D"/>
      <stop offset="1" stop-color="#030306"/>
    </linearGradient>
    <linearGradient id="noir-spade" x1="20" y1="7.5" x2="20" y2="29.5" gradientUnits="userSpaceOnUse">
      <stop stop-color="#FFFFFF"/>
      <stop offset="0.52" stop-color="#D9D8E3"/>
      <stop offset="1" stop-color="#9B98AA"/>
    </linearGradient>
    <linearGradient id="noir-violet" x1="11" y1="8" x2="31" y2="32" gradientUnits="userSpaceOnUse">
      <stop stop-color="#C4B5FD"/>
      <stop offset="0.45" stop-color="#8B5CF6"/>
      <stop offset="1" stop-color="#4C1D95"/>
    </linearGradient>
    <filter id="noir-shadow" x="3" y="4" width="34" height="34" color-interpolation-filters="sRGB" filterUnits="userSpaceOnUse">
      <feDropShadow dx="0" dy="2" stdDeviation="3" flood-color="#000000" flood-opacity="0.48"/>
    </filter>
    <filter id="noir-glow" x="4" y="4" width="32" height="32" color-interpolation-filters="sRGB" filterUnits="userSpaceOnUse">
      <feGaussianBlur stdDeviation="1.4" result="blur"/>
      <feColorMatrix in="blur" type="matrix" values="0 0 0 0 0.54 0 0 0 0 0.36 0 0 0 0 0.96 0 0 0 0.7 0"/>
      <feBlend in2="SourceGraphic" mode="screen"/>
    </filter>
  </defs>

  <rect x="1.5" y="1.5" width="37" height="37" rx="13" fill="url(#noir-bg)"/>
  <rect x="2.15" y="2.15" width="35.7" height="35.7" rx="12.35" stroke="#FFFFFF" stroke-opacity="0.1" stroke-width="1.3"/>
  <path d="M9.5 20C9.5 13.92 13.92 9.5 20 9.5C26.08 9.5 30.5 13.92 30.5 20C30.5 26.08 26.08 30.5 20 30.5C13.92 30.5 9.5 26.08 9.5 20Z" stroke="url(#noir-violet)" stroke-opacity="0.38" stroke-width="1.35"/>
  <path d="M10.75 27.25C14.4 24.85 17.62 29.13 21.44 26.95C24.86 24.99 27.29 27.72 29.25 26.12" stroke="#B9A9FF" stroke-width="1.45" stroke-linecap="round" opacity="0.55"/>

  <g filter="url(#noir-shadow)">
    <path d="M20 7.4C17.32 10.02 12.02 14.96 12.02 20.03C12.02 23.38 14.57 25.5 17.6 24.93C17.08 27.23 15.73 28.77 14.22 29.88H25.78C24.27 28.77 22.92 27.23 22.4 24.93C25.43 25.5 27.98 23.38 27.98 20.03C27.98 14.96 22.68 10.02 20 7.4Z" fill="url(#noir-spade)"/>
    <path d="M20 7.4C17.32 10.02 12.02 14.96 12.02 20.03C12.02 23.38 14.57 25.5 17.6 24.93C17.08 27.23 15.73 28.77 14.22 29.88H25.78C24.27 28.77 22.92 27.23 22.4 24.93C25.43 25.5 27.98 23.38 27.98 20.03C27.98 14.96 22.68 10.02 20 7.4Z" stroke="#FFFFFF" stroke-opacity="0.22" stroke-width="0.7"/>
  </g>
  <path d="M20 10.05C18.35 11.86 15.26 15.38 14.35 18.78C16.67 16.6 19.06 14.29 20 10.05Z" fill="#FFFFFF" fill-opacity="0.22"/>
  <path d="M25.6 11.15C27.55 12.72 28.85 15.05 29.17 17.68" stroke="#E9D5FF" stroke-width="1.15" stroke-linecap="round" opacity="0.82" filter="url(#noir-glow)"/>
</svg>
